<svg id="Logo" xmlns="http://www.w3.org/2000/svg" xmlns:xlink="http://www.w3.org/1999/xlink" viewBox="0 0 145.121 47.375">
  <defs>
    <style>
      .cls-1 {
        fill: #fff;
      }

      .cls-2 {
        fill: url(#linear-gradient);
      }

      .cls-3 {
        fill: url(#linear-gradient-2);
      }

      .cls-4 {
        fill: url(#linear-gradient-3);
      }
    </style>
    <linearGradient id="linear-gradient" x1="0.05" y1="-0.018" x2="0.977" y2="1.024" gradientUnits="objectBoundingBox">
      <stop offset="0" stop-color="#001036"/>
      <stop offset="0.077" stop-color="#002952"/>
      <stop offset="0.172" stop-color="#003b6a"/>
      <stop offset="0.271" stop-color="#004a7f"/>
      <stop offset="0.373" stop-color="#005690"/>
      <stop offset="0.48" stop-color="#005e9d"/>
      <stop offset="0.594" stop-color="#0064a6"/>
      <stop offset="0.719" stop-color="#0067ab"/>
      <stop offset="0.876" stop-color="#0069ad"/>
    </linearGradient>
    <linearGradient id="linear-gradient-2" x1="0.002" y1="0.201" x2="0.966" y2="0.973" gradientUnits="objectBoundingBox">
      <stop offset="0.2" stop-color="#0069ad"/>
      <stop offset="0.306" stop-color="#0067aa"/>
      <stop offset="0.417" stop-color="#0063a4"/>
      <stop offset="0.531" stop-color="#005b98"/>
      <stop offset="0.647" stop-color="#005088"/>
      <stop offset="0.764" stop-color="#004273"/>
      <stop offset="0.882" stop-color="#002f59"/>
      <stop offset="1" stop-color="#001036"/>
    </linearGradient>
    <linearGradient id="linear-gradient-3" x1="0.045" y1="0.047" x2="1.008" y2="0.81" gradientUnits="objectBoundingBox">
      <stop offset="0.2" stop-color="#0069ad"/>
      <stop offset="0.304" stop-color="#0067aa"/>
      <stop offset="0.415" stop-color="#0063a3"/>
      <stop offset="0.53" stop-color="#005b98"/>
      <stop offset="0.647" stop-color="#005087"/>
      <stop offset="0.766" stop-color="#004172"/>
      <stop offset="0.885" stop-color="#002e58"/>
      <stop offset="1" stop-color="#001036"/>
    </linearGradient>
  </defs>
  <path id="Shape" class="cls-1" d="M14.938,0A14.938,14.938,0,1,0,29.876,14.938,14.846,14.846,0,0,0,14.938,0Z" transform="translate(57.618)"/>
  <path id="Shape-2" data-name="Shape" class="cls-2" d="M17.214,15.934a5.845,5.845,0,0,0-1.28-3.7h0a3.835,3.835,0,0,0-1-1.138,1.761,1.761,0,0,1-.427.285,10.817,10.817,0,0,1-4.695,1.565A9.363,9.363,0,0,1,0,4.126,10.1,10.1,0,0,1,.711,0h0a6.85,6.85,0,0,0,1,3.414h0a4.035,4.035,0,0,0,1.28,1.423H3.13l.285-.285A10.817,10.817,0,0,1,8.109,2.988a9.363,9.363,0,0,1,9.816,8.821,10.1,10.1,0,0,1-.711,4.126Z" transform="translate(63.451 7.113)"/>
  <path id="Shape-3" data-name="Shape" class="cls-3" d="M14.227,26.746A14.268,14.268,0,0,1,0,12.519,14.067,14.067,0,0,1,7.682,0h.142A11.272,11.272,0,0,0,4.268,8.678a10.48,10.48,0,0,0,10.955,9.959,11.252,11.252,0,0,0,4.837-1.423h0l.285.285a5.534,5.534,0,0,1,.569,5.548C19.064,26.888,14.227,26.746,14.227,26.746Z" transform="translate(58.329 2.419)"/>
  <path id="Shape-4" data-name="Shape" class="cls-4" d="M.388,3.983C1.526.711,5.083.142,7.074,0A14.268,14.268,0,0,1,21.3,14.227a13.993,13.993,0,0,1-7.825,12.662h0a11.272,11.272,0,0,0,3.557-8.678A10.48,10.48,0,0,0,6.078,8.251,11.252,11.252,0,0,0,1.241,9.674L1.1,9.247A5.378,5.378,0,0,1,.388,3.983Z" transform="translate(65.481 0.711)"/>
  <path id="Shape-5" data-name="Shape" d="M2.56,12.519H0V0H8.251a7.634,7.634,0,0,1,4.232,1,3.126,3.126,0,0,1,1.458,2.7,3.126,3.126,0,0,1-1.458,2.7,7.634,7.634,0,0,1-4.232,1H2.56v5.12Zm-.142-11.1V5.975H7.256a6.426,6.426,0,0,0,3.13-.6,1.836,1.836,0,0,0,1-1.672c0-1.574-1.272-2.276-4.126-2.276Z" transform="translate(0 34.713)"/>
  <path id="Shape-6" data-name="Shape" d="M2.276,12.519H0V3.557H2.276v8.961Zm0-10.67H0V0H2.276V1.848Z" transform="translate(17.214 34.713)"/>
  <path id="Shape-7" data-name="Shape" d="M6.544,9.39A7.764,7.764,0,0,1,1.725,8.056,4.4,4.4,0,0,1,0,4.694,4.142,4.142,0,0,1,1.814,1.334,7.79,7.79,0,0,1,6.4,0a6.532,6.532,0,0,1,4.917,1.751,4.509,4.509,0,0,1,1.2,3.371H2.418a2.624,2.624,0,0,0,.954,2.035,5.052,5.052,0,0,0,3.314.952c1.908,0,3.138-.59,3.557-1.707h2.09C11.706,8.3,9.6,9.39,6.544,9.39ZM6.4,1.281a4.711,4.711,0,0,0-2.721.747A2.531,2.531,0,0,0,2.56,3.841h7.682A2.536,2.536,0,0,0,9.069,2.027,4.762,4.762,0,0,0,6.4,1.281Z" transform="translate(22.62 37.985)"/>
  <path id="Shape-8" data-name="Shape" d="M0,.285H2.134V2.134h0A5.7,5.7,0,0,1,7.113,0V1.565c-3.557,0-4.837,1.423-4.837,3.7V9.247H0V.285" transform="translate(37.985 37.843)"/>
  <path id="Shape-9" data-name="Shape" d="M0,.285H2.134V2.134h0A5.7,5.7,0,0,1,7.113,0V1.565c-3.557,0-4.837,1.423-4.837,3.7V9.247H0V.285" transform="translate(47.232 37.843)"/>
  <path id="Shape-10" data-name="Shape" d="M6.544,9.39A7.764,7.764,0,0,1,1.725,8.056,4.4,4.4,0,0,1,0,4.694,4.142,4.142,0,0,1,1.814,1.334,7.79,7.79,0,0,1,6.4,0a6.532,6.532,0,0,1,4.917,1.751,4.509,4.509,0,0,1,1.2,3.371H2.418a2.241,2.241,0,0,0,.6,1.751A4.907,4.907,0,0,0,6.686,8.109c1.908,0,3.138-.59,3.557-1.707h2.09C11.706,8.3,9.6,9.39,6.544,9.39ZM6.4,1.281a4.711,4.711,0,0,0-2.721.747A2.531,2.531,0,0,0,2.56,3.841h7.682A2.536,2.536,0,0,0,9.069,2.027,4.762,4.762,0,0,0,6.4,1.281Z" transform="translate(55.199 37.985)"/>
  <path id="Shape-11" data-name="Shape" d="M0,0H12.377V1.423H2.561V5.406H11.1V6.829H2.561v5.691H0V0" transform="translate(78.816 34.713)"/>
  <path id="Shape-12" data-name="Shape" d="M11.1,9.532c-1.21,0-1.849-.492-1.849-1.423A7.5,7.5,0,0,1,4.41,9.532,7.032,7.032,0,0,1,1.3,8.945,2.124,2.124,0,0,1,0,6.971C0,4.979,2.314,4.545,4.552,4.126c.525-.062,1.029-.1,1.517-.142,1.7-.138,3.036-.247,3.036-1.138,0-1.293-1.625-1.564-2.988-1.564-2.14,0-3.289.574-3.415,1.707H.427A2.681,2.681,0,0,1,2.205.64,9.806,9.806,0,0,1,6.117,0,10.511,10.511,0,0,1,9.585.462c1.1.4,1.654,1.057,1.654,1.956v4.7c0,.7,0,1,.711,1a1.559,1.559,0,0,0,.712-.142V9.248h0l0,0A4.431,4.431,0,0,1,11.1,9.532ZM9.105,4.694a9.006,9.006,0,0,1-2.882.481c-.367.026-.746.053-1.1.089-1.233.123-2.7.495-2.7,1.565,0,1.114,1.6,1.28,2.561,1.28A5.954,5.954,0,0,0,8.163,7.38a1.683,1.683,0,0,0,.943-1.263Z" transform="translate(93.327 37.843)"/>
  <path id="Shape-13" data-name="Shape" d="M6.686,12.662a6.878,6.878,0,0,1-4.41-1.423v1.138H0V0H2.276V4.694c.646-.9,2.2-1.422,4.268-1.422a7.223,7.223,0,0,1,4.678,1.44,4.252,4.252,0,0,1,.071,6.562A7.069,7.069,0,0,1,6.686,12.662ZM6.26,4.552c-3.042,0-4.126,1.764-4.126,3.415a3.158,3.158,0,0,0,.96,2.4A4.757,4.757,0,0,0,6.4,11.381,4.333,4.333,0,0,0,9.585,10.3a3.4,3.4,0,0,0,.942-2.472C10.527,5.564,8.384,4.552,6.26,4.552Z" transform="translate(108.691 34.713)"/>
  <path id="Shape-14" data-name="Shape" d="M0,.285H2.134V2.134h0C3.13.711,4.695,0,7.113,0V1.565c-3.557,0-4.837,1.423-4.837,3.7V9.247H0V.285" transform="translate(124.625 37.843)"/>
  <path id="Shape-15" data-name="Shape" d="M6.544,9.39A7.764,7.764,0,0,1,1.725,8.056,4.4,4.4,0,0,1,0,4.694,4.142,4.142,0,0,1,1.814,1.334,7.79,7.79,0,0,1,6.4,0a6.532,6.532,0,0,1,4.917,1.751,4.509,4.509,0,0,1,1.2,3.371H2.418a2.241,2.241,0,0,0,.6,1.751A4.907,4.907,0,0,0,6.686,8.109c1.908,0,3.138-.59,3.557-1.707h2.09C11.706,8.3,9.6,9.39,6.544,9.39ZM6.4,1.281a4.711,4.711,0,0,0-2.721.747A2.531,2.531,0,0,0,2.56,3.841h7.682A2.536,2.536,0,0,0,9.069,2.027,4.762,4.762,0,0,0,6.4,1.281Z" transform="translate(132.592 37.985)"/>
</svg>
